PathFileType	4	(X/Y/Z)	./resultDataOpenSim/trcMotMarkerGrf/sub10/qtm-03-06.trc
DataRate	CameraRate	NumFrames	NumMarkers	Units	OrigDataRate	OrigDataStartFrame	OrigNumFrames
250.000000	250.000000	9	24	m	250.000000	442	504
Frame#	Time	L.Toe.Tip			R.Toe.Tip			L.Ankle.Lat			R.Ankle.Lat			L.Ankle.Med			R.Ankle.Med			L.Heel			R.Heel			L.Knee.Lat			R.Knee.Lat			L.Knee.Med			R.Knee.Med			L.Thigh.Upper			R.Thigh.Upper			L.ASIS			R.ASIS			V.Sacral			L.Acromium			R.Acromium			C7			L.Elbow			R.Elbow			L.Wrist.Lat			R.Wrist.Lat
		X1	Y1	Z1	X2	Y2	Z2	X3	Y3	Z3	X4	Y4	Z4	X5	Y5	Z5	X6	Y6	Z6	X7	Y7	Z7	X8	Y8	Z8	X9	Y9	Z9	X10	Y10	Z10	X11	Y11	Z11	X12	Y12	Z12	X13	Y13	Z13	X14	Y14	Z14	X15	Y15	Z15	X16	Y16	Z16	X17	Y17	Z17	X18	Y18	Z18	X19	Y19	Z19	X20	Y20	Z20	X21	Y21	Z21	X22	Y22	Z22	X23	Y23	Z23	X24	Y24	Z24

442	1.764	1.6025408	0.11972693	-0.10307057	0.82088707	0.037766155	0.049480023	1.4737984	0.084429291	-0.12829738	0.68682245	0.08383101	0.074063411	1.4767059	0.11080354	-0.048980381	0.72009698	0.10163193	-0.0081748825	1.4316754	0.03044285	-0.080924172	0.6339825	0.073122403	0.02390241	1.3292748	0.4509468	-0.14977869	0.90331464	0.42305752	0.1168662	1.3482541	0.42841707	-0.031693776	0.94468039	0.41561091	-0.0058397755	1.1699223	0.79721528	-0.19227591	0.99389914	0.82398578	0.16017522	1.1929442	0.90666556	-0.10362483	1.0990713	0.90790504	0.12878248	0.96471344	0.90152655	-0.073606064	1.0707735	1.3715216	-0.1623126	1.0287646	1.366991	0.15949233	0.96901538	1.3924581	-0.016094946	0.92819262	1.0828204	-0.27128292	1.0665797	1.0103038	0.23230856	0.95807548	0.85465873	-0.33839856	1.302484	0.93671103	0.26469182
443	1.768	1.6059376	0.11661451	-0.10318036	0.82110198	0.037775367	0.049575676	1.4768871	0.082556169	-0.12781674	0.68780953	0.085838192	0.074047522	1.4804544	0.10859788	-0.048483635	0.7214152	0.10317255	-0.0080065147	1.434297	0.028928406	-0.080373017	0.63491805	0.075844021	0.024089227	1.3363159	0.45058056	-0.14997396	0.90784924	0.42255897	0.11669377	1.3559447	0.42878154	-0.031798104	0.94961722	0.4146733	-0.0058049874	1.1762986	0.79713411	-0.19262093	0.99944853	0.82311486	0.15944834	1.1995264	0.90602662	-0.10338901	1.1048857	0.90664874	0.12910236	0.9712436	0.90087157	-0.07408313	1.0768441	1.3708263	-0.16281303	1.0352313	1.3662481	0.15863491	0.97505426	1.3916461	-0.016736801	0.93455794	1.0818579	-0.27158598	1.0732056	1.0095519	0.23042623	0.96501555	0.85380512	-0.33874155	1.3089057	0.93631144	0.26392345
444	1.772	1.6090713	0.11335175	-0.10323638	0.82134217	0.03781855	0.04965671	1.4797072	0.080640074	-0.12727501	0.68882998	0.087938347	0.074066195	1.4838091	0.10642486	-0.047963056	0.7228326	0.104793	-0.0078190739	1.4366027	0.027422085	-0.079784294	0.6359274	0.078714335	0.024355237	1.3432699	0.45014322	-0.15015634	0.91249156	0.42207578	0.1165203	1.3635676	0.42910577	-0.031905911	0.95463399	0.41375735	-0.0057627396	1.1827046	0.79705326	-0.1929931	1.0051308	0.82222166	0.15873718	1.2061317	0.90547241	-0.10321122	1.1109409	0.90549223	0.1292461	0.977795	0.90026493	-0.074516187	1.082946	1.3701777	-0.16331859	1.0417181	1.3655248	0.15772607	0.98112215	1.3908489	-0.017401077	0.94099722	1.0808936	-0.27185235	1.0797657	1.0088476	0.22848138	0.97215414	0.85296628	-0.33910328	1.3152344	0.93586944	0.26315163
445	1.776	1.6119673	0.10996578	-0.1032062	0.82160978	0.037900304	0.04969899	1.482307	0.078703373	-0.12667144	0.68998248	0.090133099	0.074174608	1.4868244	0.1043028	-0.047381001	0.72435392	0.10649396	-0.0076016432	1.4386064	0.025987291	-0.079157195	0.63703828	0.081737816	0.024668052	1.3501389	0.44962472	-0.15030855	0.9172555	0.42160801	0.11635104	1.3710861	0.42935003	-0.032009023	0.95975033	0.41286769	-0.0057048513	1.1891427	0.79696491	-0.19338399	1.0109688	0.82130888	0.15806046	1.2127613	0.90499591	-0.10309541	1.1171808	0.904406	0.12926062	0.98437881	0.89970298	-0.074908974	1.0890672	1.3695809	-0.16383731	1.0479678	1.3648978	0.15688856	0.98722349	1.3900713	-0.018077533	0.94751361	1.0799241	-0.27208963	1.0862358	1.0081852	0.22648141	0.97948285	0.85213762	-0.33948461	1.3214673	0.93538794	0.26238533
446	1.78	1.6146682	0.10645387	-0.10301223	0.8219114	0.037988702	0.049672723	1.4847298	0.076759652	-0.1260115	0.69130686	0.092425076	0.074366571	1.489554	0.10221107	-0.0467249	0.72599695	0.10826932	-0.0073528635	1.440294	0.024726217	-0.078513674	0.63830085	0.084895991	0.024953463	1.3569212	0.44902426	-0.15042181	0.92217568	0.42116263	0.11621285	1.3784647	0.42948582	-0.032098824	0.96498878	0.41200398	-0.005619554	1.1956196	0.79686296	-0.19378217	1.016979	0.82037761	0.15743696	1.2194233	0.9045823	-0.10305547	1.1235302	0.90335164	0.12920573	0.99100244	0.89918082	-0.07525339	1.0952014	1.3690257	-0.16437494	1.0539613	1.3643901	0.15615145	0.99336167	1.3893207	-0.018756851	0.95410456	1.0789452	-0.27230622	1.0925954	1.0075623	0.22441951	0.98699945	0.85131431	-0.33988983	1.327603	0.93487087	0.26164133
447	1.784	1.6172489	0.10279068	-0.10260209	0.82225305	0.038031647	0.049568989	1.4870131	0.074813402	-0.1253146	0.69276867	0.094814862	0.074600823	1.4920566	0.1001093	-0.046008613	0.72777831	0.11011339	-0.007075612	1.4416608	0.023725995	-0.077892112	0.63975177	0.088164228	0.025147445	1.3636035	0.44834666	-0.1504949	0.9272856	0.42074739	0.11613398	1.3856816	0.42949464	-0.032169629	0.97036962	0.4111568	-0.0054959301	1.202146	0.79674303	-0.19417605	1.0231623	0.81942781	0.15687416	1.2261285	0.90422191	-0.10310236	1.1299564	0.90230871	0.12910679	0.99766818	0.89869341	-0.075536233	1.1013594	1.3684908	-0.16493132	1.0598656	1.3639645	0.15545986	0.99953023	1.3885968	-0.01944638	0.96076248	1.0779506	-0.27250357	1.0988512	1.0069998	0.22224019	0.9947025	0.85049551	-0.34032152	1.333644	0.93432534	0.26095039
448	1.788	1.6198557	0.098896188	-0.10201968	0.82262426	0.038008886	0.049436886	1.4892124	0.072882683	-0.12464005	0.69433045	0.097300133	0.074843054	1.4944059	0.097977809	-0.045268827	0.72970688	0.11202629	-0.0067767903	1.4427631	0.022990693	-0.077322746	0.641389	0.091536791	0.025239807	1.3701574	0.44759441	-0.15053214	0.93258591	0.42035562	0.11611307	1.3927322	0.42936244	-0.032219875	0.97590888	0.41031359	-0.0053308108	1.2087283	0.79660525	-0.19456103	1.0295021	0.81845875	0.15636051	1.2328799	0.90391492	-0.10323022	1.136454	0.90127593	0.12896596	1.0043747	0.89823835	-0.075754721	1.107552	1.367968	-0.16550698	1.0658037	1.3635701	0.1547655	1.0057178	1.3878927	-0.020166527	0.9674869	1.0769387	-0.27267178	1.1050861	1.0065617	0.21981008	1.0025844	0.84968082	-0.34077813	1.3395872	0.93375483	0.26032847
449	1.792	1.6227153	0.094657244	-0.10142138	0.82300534	0.037950997	0.04935216	1.4914362	0.07103989	-0.12410327	0.69599302	0.09987759	0.07507542	1.4967197	0.095875203	-0.044552848	0.73178247	0.11401399	-0.0064700195	1.4437152	0.02250302	-0.076811832	0.64318604	0.095036141	0.0252676	1.376542	0.44676361	-0.15054123	0.93805604	0.41996784	0.11612102	1.3996155	0.42907935	-0.03225033	0.98161196	0.4094664	-0.0051326843	1.2153686	0.79645628	-0.19494478	1.0359795	0.81746644	0.15587433	1.2396673	0.90365594	-0.10342308	1.1430271	0.90026138	0.12877766	1.0111145	0.89782166	-0.075923674	1.1137725	1.3674656	-0.16610556	1.0717873	1.3631765	0.15405321	1.0119193	1.3871996	-0.020927954	0.97428559	1.0759129	-0.27280189	1.1114724	1.0063125	0.21697255	1.0106333	0.84886506	-0.34125792	1.3454277	0.93314602	0.2597361
450	1.796	1.6260372	0.090001393	-0.10094892	0.82339983	0.037899084	0.049335953	1.4938372	0.06943421	-0.12380434	0.69778112	0.10254601	0.075293462	1.4991895	0.093959673	-0.043900179	0.73399634	0.1160865	-0.0061756117	1.4446409	0.022382823	-0.076376307	0.64511983	0.098699956	0.025276466	1.3827171	0.44585332	-0.15053448	0.94369263	0.41957121	0.11612873	1.4063185	0.42864203	-0.032257717	0.98746958	0.40861383	-0.0049186846	1.2220735	0.79630732	-0.19534349	1.0425901	0.81644229	0.15539774	1.246463	0.90343094	-0.10366817	1.1496889	0.89926934	0.12853843	1.0178729	0.89745627	-0.076061876	1.1200146	1.3669841	-0.16672616	1.0777877	1.3627842	0.15332136	1.0181368	1.3865163	-0.021720222	0.98116146	1.0748711	-0.2728979	1.1181441	1.0061962	0.21373486	1.0188348	0.84804088	-0.3417597	1.3511758	0.93247986	0.2591022
